<svg xmlns="http://www.w3.org/2000/svg" viewBox="0 0 22 12" width="22" height="12">
	<style>
		tspan { white-space:pre }
		.shp0 { fill: #ffffff } 
	</style>
	<g id="Product">
		<g id="9">
			<g id="Hover">
				<g id="Button">
					<g id="Add to cart copy">
						<path id="Forma 1" class="shp0" d="M21.7 7.18C21.32 6.79 20.71 6.79 20.34 7.18L18.99 8.58L18.99 1C18.99 0.45 18.55 0 18.02 0L8.58 0C8.05 0 7.62 0.45 7.62 1C7.62 1.55 8.05 2 8.58 2L17.06 2L17.06 8.58L15.7 7.18C15.33 6.79 14.72 6.79 14.34 7.18C13.96 7.57 13.96 8.2 14.34 8.59L17.34 11.71C17.52 11.89 17.77 12 18.02 12C18.28 12 18.52 11.89 18.7 11.71L21.7 8.59C22.08 8.2 22.08 7.57 21.7 7.18ZM13.4 10L4.93 10L4.93 3.42L6.28 4.82C6.47 5.02 6.71 5.11 6.96 5.11C7.21 5.11 7.45 5.02 7.64 4.82C8.02 4.43 8.02 3.8 7.64 3.41L4.64 0.29C4.46 0.11 4.22 0 3.96 0C3.71 0 3.46 0.11 3.28 0.29L0.28 3.41C-0.1 3.8 -0.1 4.43 0.28 4.82C0.66 5.21 1.27 5.21 1.65 4.82L3 3.42L3 11C3 11.55 3.43 12 3.96 12L13.4 12C13.93 12 14.37 11.55 14.37 11C14.37 10.45 13.93 10 13.4 10Z" />
					</g>
				</g>
			</g>
		</g>
	</g>
</svg>