<svg xmlns="http://www.w3.org/2000/svg" viewBox="0 0 18 17" width="18" height="17">
	<style>
		tspan { white-space:pre }
		.shp0 { fill: #ffffff;stroke: #ffffff } 
	</style>
	<g id="Product">
		<g id="9">
			<g id="Hover">
				<g id="Button">
					<g id="Add to cart copy 2">
						<path id="Forma 1" class="shp0" d="M9 16C8.85 16 8.71 15.94 8.6 15.83L2.21 8.91C2.21 8.91 2.21 8.91 2.2 8.9C1.43 8.04 1 6.9 1 5.69C1 4.47 1.43 3.33 2.2 2.47L2.3 2.36C3.09 1.48 4.15 1 5.27 1C6.4 1 7.45 1.48 8.24 2.36L9 3.2L9.76 2.36C10.55 1.48 11.6 1 12.73 1C13.85 1 14.91 1.48 15.7 2.36L15.8 2.47C16.57 3.33 17 4.47 17 5.69C17 6.9 16.57 8.04 15.8 8.91C15.79 8.91 15.79 8.91 15.79 8.91L9.4 15.83C9.29 15.94 9.15 16 9 16ZM3 8.17L9 14.66L15 8.17C16.23 6.8 16.23 4.57 14.99 3.2L14.9 3.09C14.31 2.44 13.54 2.09 12.73 2.09C11.91 2.09 11.14 2.44 10.56 3.09L9.4 4.38C9.3 4.49 9.15 4.56 9 4.56C8.85 4.56 8.7 4.49 8.6 4.38L7.44 3.09C6.86 2.44 6.09 2.09 5.27 2.09C4.46 2.09 3.69 2.44 3.1 3.09L3.01 3.2C1.77 4.57 1.77 6.8 3 8.17Z" />
					</g>
				</g>
			</g>
		</g>
	</g>
</svg>